<svg width="60" height="44" viewBox="0 0 60 44" fill="none" xmlns="http://www.w3.org/2000/svg">
<rect x="0.5" y="0.5" width="59" height="43" rx="21.5" fill="#3CAF4B" stroke="#277932"/>
<path d="M34.9929 13.4861C34.5454 12.34 33.4777 11.6 32.2726 11.6H32.1016V11H23.8985V11.6H23.7274C22.5223 11.6 21.4546 12.34 21.0071 13.4861L19.1267 18.2H18V19.4H18.8429C19.1123 19.4 19.3458 19.587 19.4116 19.8541L21.3504 27.6371C21.5461 28.4393 22.2476 29 23.0556 29H32.9444C33.7524 29 34.493 28.4392 34.6886 27.6365L36.5884 19.8547C36.6542 19.5869 36.8876 19.4 37.1571 19.4H38V18.2H36.8733L34.9929 13.4861ZM25.0703 26.6H23.8985V20.6H25.0703V26.6ZM28.5859 26.6H27.4141V20.6H28.5859V26.6ZM32.1016 26.6H30.9297V20.6H32.1016V26.6ZM22.0954 13.9315C22.3638 13.2442 23.0047 12.8 23.7274 12.8H23.8985V13.4H32.1016V12.8H32.2727C32.9954 12.8 33.6363 13.2441 33.9046 13.9314L35.6111 18.2H20.3889L22.0954 13.9315Z" fill="white"/>
<circle cx="36.5" cy="29.5" r="5" fill="white" stroke="#3CAF4B"/>
<rect x="36" y="27" width="1" height="5" fill="#3CAF4B"/>
<rect x="39" y="29" width="1" height="5" transform="rotate(90 39 29)" fill="#3CAF4B"/>
</svg>
